<mxfile host="app.diagrams.net" modified="2022-08-09T10:16:07.225Z" agent="5.0 (Macintosh; Intel Mac OS X 10_15_7) AppleWebKit/537.36 (KHTML, like Gecko) Chrome/103.0.0.0 Safari/537.36" etag="TgAP7EGG3ipOXSGjL-An" version="20.2.3" type="github">
  <diagram name="Page-1" id="929967ad-93f9-6ef4-fab6-5d389245f69c">
    <mxGraphModel dx="3179.5" dy="801" grid="1" gridSize="10" guides="1" tooltips="1" connect="1" arrows="1" fold="1" page="1" pageScale="1.5" pageWidth="1169" pageHeight="826" background="#F1FAEE" math="0" shadow="0">
      <root>
        <mxCell id="0" style=";html=1;" />
        <mxCell id="1" style=";html=1;" parent="0" />
        <mxCell id="nSlZXtHs8TAIIZ9ElyPw-10" value="&lt;pre style=&quot;color: rgb(169, 183, 198); font-family: &amp;quot;JetBrains Mono&amp;quot;, monospace; font-size: 3px;&quot;&gt;&lt;span style=&quot;background-color: rgb(247, 247, 247); font-size: 3px;&quot;&gt;CREATE TABLE  IF NOT EXISTS refdata.benchmark_indicator ON CLUSTER ck_cluster1&lt;br style=&quot;font-size: 3px;&quot;&gt;(&lt;br style=&quot;font-size: 3px;&quot;&gt;    id UInt64,&lt;br style=&quot;font-size: 3px;&quot;&gt;    security_id String,&lt;br style=&quot;font-size: 3px;&quot;&gt;    benchmark_type Int8 ,&lt;br style=&quot;font-size: 3px;&quot;&gt;    benchmark_effective_date date,&lt;br style=&quot;font-size: 3px;&quot;&gt;    rate Double ,&lt;br style=&quot;font-size: 3px;&quot;&gt;    up_down_rate Double,&lt;br style=&quot;font-size: 3px;&quot;&gt;    source_time Date,&lt;br style=&quot;font-size: 3px;&quot;&gt;    ts UInt64,&lt;br style=&quot;font-size: 3px;&quot;&gt;    created_time Date&lt;br style=&quot;font-size: 3px;&quot;&gt;)ENGINE = MergeTree() ORDER BY id PARTITION BY id&lt;/span&gt;&lt;/pre&gt;" style="shape=note;whiteSpace=wrap;html=1;backgroundOutline=1;darkOpacity=0.05;align=left;fontSize=3;" vertex="1" parent="1">
          <mxGeometry x="420" y="415" width="440" height="205" as="geometry" />
        </mxCell>
        <mxCell id="1672d66443f91eb5-1" value="&lt;p style=&quot;margin: 0px ; margin-top: 4px ; margin-left: 10px ; text-align: left&quot;&gt;&lt;b&gt;回测dv01开发设计图&lt;/b&gt;&lt;/p&gt;" style="html=1;strokeWidth=1;shape=mxgraph.sysml.package;html=1;overflow=fill;whiteSpace=wrap;fillColor=none;fontSize=12;align=center;labelX=327.64;strokeColor=#457B9D;fontColor=#1D3557;" parent="1" vertex="1">
          <mxGeometry x="-50" y="270" width="1383" height="740" as="geometry" />
        </mxCell>
        <mxCell id="jztgn6ne6bUseThg9FG1-3" style="edgeStyle=orthogonalEdgeStyle;shape=arrow;rounded=0;orthogonalLoop=1;jettySize=auto;html=1;entryX=0;entryY=0.5;entryDx=0;entryDy=0;exitX=0;exitY=0;exitDx=232.99999999999997;exitDy=52.5;exitPerimeter=0;labelBackgroundColor=#F1FAEE;strokeColor=#457B9D;fontColor=#1D3557;" parent="1" source="1672d66443f91eb5-2" target="1672d66443f91eb5-9" edge="1">
          <mxGeometry relative="1" as="geometry" />
        </mxCell>
        <mxCell id="jztgn6ne6bUseThg9FG1-5" value="" style="edgeStyle=orthogonalEdgeStyle;rounded=0;orthogonalLoop=1;jettySize=auto;html=1;labelBackgroundColor=#F1FAEE;strokeColor=#457B9D;fontColor=#1D3557;" parent="1" source="1672d66443f91eb5-2" target="1672d66443f91eb5-4" edge="1">
          <mxGeometry relative="1" as="geometry" />
        </mxCell>
        <mxCell id="1672d66443f91eb5-2" value="&amp;lt;&amp;lt;runtimedriver&amp;gt;&amp;gt;&lt;br&gt;event_register(EVENT_REF_DATA)" style="shape=folder;tabWidth=80;tabHeight=20;tabPosition=left;strokeWidth=1;html=1;whiteSpace=wrap;align=center;fontSize=12;fontStyle=1;fillColor=#A8DADC;strokeColor=#457B9D;fontColor=#1D3557;" parent="1" vertex="1">
          <mxGeometry x="40" y="330" width="233" height="85" as="geometry" />
        </mxCell>
        <mxCell id="jztgn6ne6bUseThg9FG1-6" value="" style="edgeStyle=orthogonalEdgeStyle;rounded=0;orthogonalLoop=1;jettySize=auto;html=1;labelBackgroundColor=#F1FAEE;strokeColor=#457B9D;fontColor=#1D3557;" parent="1" source="1672d66443f91eb5-4" target="1672d66443f91eb5-8" edge="1">
          <mxGeometry relative="1" as="geometry" />
        </mxCell>
        <mxCell id="1672d66443f91eb5-4" value="&lt;p&gt;&amp;lt;&amp;lt;puller&amp;gt;&amp;gt;&lt;/p&gt;&lt;p&gt;read_ref_data_from_db&lt;br&gt;&lt;/p&gt;" style="shape=rect;html=1;overflow=fill;whiteSpace=wrap;align=center;fontStyle=1;fillColor=#A8DADC;strokeColor=#457B9D;fontColor=#1D3557;" parent="1" vertex="1">
          <mxGeometry x="76.5" y="480" width="160" height="80" as="geometry" />
        </mxCell>
        <mxCell id="jztgn6ne6bUseThg9FG1-7" style="edgeStyle=orthogonalEdgeStyle;rounded=0;orthogonalLoop=1;jettySize=auto;html=1;exitX=1;exitY=0.5;exitDx=0;exitDy=0;entryX=0;entryY=0.75;entryDx=0;entryDy=0;labelBackgroundColor=#F1FAEE;strokeColor=#457B9D;fontColor=#1D3557;" parent="1" source="1672d66443f91eb5-5" target="1672d66443f91eb5-7" edge="1">
          <mxGeometry relative="1" as="geometry" />
        </mxCell>
        <mxCell id="jztgn6ne6bUseThg9FG1-8" style="edgeStyle=orthogonalEdgeStyle;rounded=0;orthogonalLoop=1;jettySize=auto;html=1;exitX=1;exitY=0.5;exitDx=0;exitDy=0;labelBackgroundColor=#F1FAEE;strokeColor=#457B9D;fontColor=#1D3557;" parent="1" source="1672d66443f91eb5-5" target="jztgn6ne6bUseThg9FG1-1" edge="1">
          <mxGeometry relative="1" as="geometry" />
        </mxCell>
        <mxCell id="jztgn6ne6bUseThg9FG1-9" style="edgeStyle=orthogonalEdgeStyle;rounded=0;orthogonalLoop=1;jettySize=auto;html=1;entryX=0;entryY=0.25;entryDx=0;entryDy=0;labelBackgroundColor=#F1FAEE;strokeColor=#457B9D;fontColor=#1D3557;" parent="1" source="1672d66443f91eb5-5" target="jztgn6ne6bUseThg9FG1-2" edge="1">
          <mxGeometry relative="1" as="geometry" />
        </mxCell>
        <mxCell id="1672d66443f91eb5-5" value="&lt;p&gt;&amp;lt;&amp;lt;Strategy&amp;gt;&lt;/p&gt;&lt;p&gt;def on_receive_referData(self, data1: RefData, data2: RefData, data3: RefData)&lt;/p&gt;" style="shape=rect;html=1;overflow=fill;whiteSpace=wrap;align=center;fontStyle=1;fillColor=#A8DADC;strokeColor=#457B9D;fontColor=#1D3557;" parent="1" vertex="1">
          <mxGeometry x="-78.5" y="840" width="470" height="70" as="geometry" />
        </mxCell>
        <mxCell id="1672d66443f91eb5-7" value="&lt;p&gt;&amp;lt;&amp;lt;api&amp;gt;&amp;gt;&lt;/p&gt;&lt;p&gt;get_benchmark_interest&lt;br&gt;&lt;/p&gt;" style="shape=rect;html=1;overflow=fill;whiteSpace=wrap;align=center;fontStyle=1;fillColor=#A8DADC;strokeColor=#457B9D;fontColor=#1D3557;" parent="1" vertex="1">
          <mxGeometry x="860" y="740" width="230" height="70" as="geometry" />
        </mxCell>
        <mxCell id="jztgn6ne6bUseThg9FG1-4" value="" style="edgeStyle=orthogonalEdgeStyle;rounded=0;orthogonalLoop=1;jettySize=auto;html=1;labelBackgroundColor=#F1FAEE;strokeColor=#457B9D;fontColor=#1D3557;" parent="1" source="1672d66443f91eb5-8" target="1672d66443f91eb5-5" edge="1">
          <mxGeometry relative="1" as="geometry" />
        </mxCell>
        <mxCell id="nSlZXtHs8TAIIZ9ElyPw-2" value="" style="edgeStyle=orthogonalEdgeStyle;rounded=0;orthogonalLoop=1;jettySize=auto;html=1;" edge="1" parent="1" source="1672d66443f91eb5-8" target="nSlZXtHs8TAIIZ9ElyPw-1">
          <mxGeometry relative="1" as="geometry" />
        </mxCell>
        <mxCell id="1672d66443f91eb5-8" value="&lt;p&gt;&amp;lt;&amp;lt;callbacks&amp;gt;&amp;gt;&lt;/p&gt;&lt;p&gt;on_receive_referData&lt;br&gt;&lt;/p&gt;" style="shape=rect;html=1;overflow=fill;whiteSpace=wrap;align=center;fontStyle=1;fillColor=#A8DADC;strokeColor=#457B9D;fontColor=#1D3557;" parent="1" vertex="1">
          <mxGeometry x="76.5" y="610" width="160" height="75" as="geometry" />
        </mxCell>
        <mxCell id="1672d66443f91eb5-9" value="&lt;p&gt;&amp;lt;&amp;lt;structs&amp;gt;&amp;gt;&lt;/p&gt;&lt;p&gt;RefData&lt;br&gt;&lt;/p&gt;" style="shape=rect;html=1;overflow=fill;whiteSpace=wrap;align=center;fontStyle=1;fillColor=#A8DADC;strokeColor=#457B9D;fontColor=#1D3557;" parent="1" vertex="1">
          <mxGeometry x="1000" y="345" width="160" height="70" as="geometry" />
        </mxCell>
        <mxCell id="1672d66443f91eb5-23" value="&lt;b style=&quot;font-size: 12px; text-align: left;&quot;&gt;回测dv01开发设计图&lt;/b&gt;" style="text;strokeColor=none;fillColor=none;html=1;fontSize=24;fontStyle=1;verticalAlign=middle;align=center;fontColor=#1D3557;" parent="1" vertex="1">
          <mxGeometry x="120" y="40" width="1510" height="40" as="geometry" />
        </mxCell>
        <mxCell id="jztgn6ne6bUseThg9FG1-1" value="&lt;p&gt;&amp;lt;&amp;lt;api&amp;gt;&amp;gt;&lt;/p&gt;get_irs_curveSeries" style="shape=rect;html=1;overflow=fill;whiteSpace=wrap;align=center;fontStyle=1;fillColor=#A8DADC;strokeColor=#457B9D;fontColor=#1D3557;" parent="1" vertex="1">
          <mxGeometry x="800" y="840" width="230" height="70" as="geometry" />
        </mxCell>
        <mxCell id="jztgn6ne6bUseThg9FG1-2" value="&lt;p&gt;&amp;lt;&amp;lt;api&amp;gt;&amp;gt;&lt;/p&gt;&lt;p&gt;&lt;span style=&quot;background-color: initial;&quot;&gt;&amp;nbsp;get_irs_DV01(baseinfo: IRSBaseInfo, curveInfo: CurveInfo)&lt;/span&gt;&lt;/p&gt;" style="shape=rect;html=1;overflow=fill;whiteSpace=wrap;align=center;fontStyle=1;fillColor=#A8DADC;strokeColor=#457B9D;fontColor=#1D3557;" parent="1" vertex="1">
          <mxGeometry x="860" y="1020" width="340" height="70" as="geometry" />
        </mxCell>
        <mxCell id="nSlZXtHs8TAIIZ9ElyPw-7" style="edgeStyle=orthogonalEdgeStyle;rounded=0;orthogonalLoop=1;jettySize=auto;html=1;exitX=1;exitY=0.5;exitDx=0;exitDy=0;" edge="1" parent="1" source="nSlZXtHs8TAIIZ9ElyPw-1" target="1672d66443f91eb5-7">
          <mxGeometry relative="1" as="geometry" />
        </mxCell>
        <mxCell id="nSlZXtHs8TAIIZ9ElyPw-1" value="runtime" style="whiteSpace=wrap;html=1;aspect=fixed;" vertex="1" parent="1">
          <mxGeometry x="311.5" y="520" width="80" height="80" as="geometry" />
        </mxCell>
        <mxCell id="nSlZXtHs8TAIIZ9ElyPw-9" value="&lt;pre style=&quot;color: rgb(169, 183, 198); font-family: &amp;quot;JetBrains Mono&amp;quot;, monospace;&quot;&gt;&lt;span style=&quot;background-color: rgb(255, 255, 255);&quot;&gt;CREATE TABLE  IF NOT EXISTS refdata.benchmark_curve ON CLUSTER ck_cluster1&lt;br&gt;(&lt;br&gt;    id UInt64,&lt;br&gt;    security_id String,&lt;br&gt;    term_price String,&lt;br&gt;    symbol String,&lt;br&gt;    source_time Date,&lt;br&gt;    ts UInt64,&lt;br&gt;    recv_date Date&lt;br&gt;)ENGINE = MergeTree() ORDER BY id PARTITION BY id&lt;/span&gt;&lt;/pre&gt;" style="shape=note;whiteSpace=wrap;html=1;backgroundOutline=1;darkOpacity=0.05;align=left;" vertex="1" parent="1">
          <mxGeometry x="420" y="610" width="440" height="180" as="geometry" />
        </mxCell>
      </root>
    </mxGraphModel>
  </diagram>
</mxfile>
